M48
; DRILL file {KiCad 8.0.5} date 2024-10-07T23:19:47+0200
; FORMAT={-:-/ absolute / inch / decimal}
; #@! TF.CreationDate,2024-10-07T23:19:47+02:00
; #@! TF.GenerationSoftware,Kicad,Pcbnew,8.0.5
; #@! TF.FileFunction,Plated,1,2,PTH
FMAT,2
INCH
; #@! TA.AperFunction,Plated,PTH,ViaDrill
T1C0.0118
; #@! TA.AperFunction,Plated,PTH,ComponentDrill
T2C0.0276
; #@! TA.AperFunction,Plated,PTH,ComponentDrill
T3C0.0374
; #@! TA.AperFunction,Plated,PTH,ComponentDrill
T4C0.0394
%
G90
G05
T1
X1.2598Y-2.1654
X1.4961Y-1.7717
X1.5354Y-2.2047
X1.6535Y-2.2835
X1.7717Y-1.6535
X1.811Y-2.5984
X1.811Y-2.7559
X1.9094Y-2.5591
X1.9685Y-2.5787
X2.4409Y-1.4173
X2.5Y-1.4173
X2.5787Y-1.4606
X2.5787Y-1.7913
X2.6181Y-1.437
X2.6181Y-1.7717
X2.6772Y-1.4173
X2.6772Y-1.7717
T2
X1.8307Y-2.1063
X1.8307Y-2.4063
X2.0079Y-2.1063
X2.0079Y-2.4063
X2.7953Y-1.0443
X2.7953Y-1.2443
X2.7953Y-1.752
X2.7953Y-1.952
T3
X2.874Y-1.4173
X2.874Y-2.126
X2.9724Y-1.4173
X2.9724Y-2.126
X3.0709Y-1.4173
X3.0709Y-2.126
T4
X0.6449Y-1.8898
X0.648Y-2.0472
X0.648Y-2.2047
X0.6707Y-2.3984
X0.6707Y-2.4984
X0.6707Y-2.5984
X0.6707Y-2.6984
X0.6707Y-2.7984
X0.7449Y-1.8898
X0.748Y-2.0472
X0.748Y-2.2047
X0.8281Y-2.3953
X0.8281Y-2.4953
X0.8281Y-2.5953
X0.8281Y-2.6953
X0.8281Y-2.7953
X0.8449Y-1.8898
X0.848Y-2.0472
X0.848Y-2.2047
X0.9449Y-1.8898
X0.948Y-2.0472
X0.948Y-2.2047
X0.9646Y-0.9498
X0.9646Y-1.0498
X0.9646Y-1.1498
X0.9646Y-1.2498
X0.9646Y-1.3498
X0.9646Y-1.4498
X0.9646Y-1.5498
X0.9646Y-1.6498
X0.9856Y-2.3984
X0.9856Y-2.4984
X0.9856Y-2.5984
X0.9856Y-2.6984
X0.9856Y-2.7984
X1.1431Y-2.3984
X1.1431Y-2.4984
X1.1431Y-2.5984
X1.1431Y-2.6984
X1.1431Y-2.7984
X1.1614Y-0.9535
X1.1614Y-1.0535
X1.1614Y-1.1535
X1.1614Y-1.2535
X1.1614Y-1.3535
X1.1614Y-1.4535
X1.1614Y-1.5535
X1.1614Y-1.6535
X1.3006Y-2.397
X1.3006Y-2.497
X1.3006Y-2.597
X1.3006Y-2.697
X1.3006Y-2.797
X1.6535Y-2.7134
X1.6535Y-2.8134
X1.6535Y-2.9134
X1.6535Y-3.0134
X2.0614Y-0.9535
X2.0614Y-1.0535
X2.0614Y-1.1535
X2.0614Y-1.2535
X2.0614Y-1.3535
X2.0614Y-1.4535
X2.0614Y-1.5535
X2.0614Y-1.6535
X2.0866Y-2.6528
X2.0866Y-2.7528
X2.0866Y-2.8528
X2.0866Y-2.9528
X2.0866Y-3.0528
X2.2638Y-0.9583
X2.2638Y-1.0583
X2.2638Y-1.1583
X2.2638Y-1.2583
X2.2638Y-1.3583
X2.2638Y-1.4583
X2.2638Y-1.5583
X2.2638Y-1.6583
X2.4016Y-2.574
X2.4016Y-2.674
X2.4016Y-2.774
X2.4016Y-2.874
X2.5433Y-0.6693
X2.6378Y-2.5772
X2.6378Y-2.6772
X2.6378Y-2.7772
X2.6378Y-2.8772
X2.6417Y-0.6693
X2.874Y-2.5772
X2.874Y-2.6772
X2.874Y-2.7772
X2.874Y-2.8772
M30
