%TF.GenerationSoftware,KiCad,Pcbnew,8.0.5*%
%TF.CreationDate,2024-10-07T23:19:43+02:00*%
%TF.ProjectId,D1 Breadboard,44312042-7265-4616-9462-6f6172642e6b,rev?*%
%TF.SameCoordinates,Original*%
%TF.FileFunction,Soldermask,Bot*%
%TF.FilePolarity,Negative*%
%FSLAX46Y46*%
G04 Gerber Fmt 4.6, Leading zero omitted, Abs format (unit mm)*
G04 Created by KiCad (PCBNEW 8.0.5) date 2024-10-07 23:19:43*
%MOMM*%
%LPD*%
G01*
G04 APERTURE LIST*
G04 Aperture macros list*
%AMRoundRect*
0 Rectangle with rounded corners*
0 $1 Rounding radius*
0 $2 $3 $4 $5 $6 $7 $8 $9 X,Y pos of 4 corners*
0 Add a 4 corners polygon primitive as box body*
4,1,4,$2,$3,$4,$5,$6,$7,$8,$9,$2,$3,0*
0 Add four circle primitives for the rounded corners*
1,1,$1+$1,$2,$3*
1,1,$1+$1,$4,$5*
1,1,$1+$1,$6,$7*
1,1,$1+$1,$8,$9*
0 Add four rect primitives between the rounded corners*
20,1,$1+$1,$2,$3,$4,$5,0*
20,1,$1+$1,$4,$5,$6,$7,0*
20,1,$1+$1,$6,$7,$8,$9,0*
20,1,$1+$1,$8,$9,$2,$3,0*%
G04 Aperture macros list end*
%ADD10C,1.200000*%
%ADD11RoundRect,0.250000X-0.600000X-0.750000X0.600000X-0.750000X0.600000X0.750000X-0.600000X0.750000X0*%
%ADD12O,1.700000X2.000000*%
%ADD13R,1.700000X1.700000*%
%ADD14O,1.700000X1.700000*%
%ADD15C,2.200000*%
%ADD16R,2.000000X2.000000*%
%ADD17O,2.000000X1.600000*%
%ADD18C,1.400000*%
%ADD19O,1.400000X1.400000*%
%ADD20RoundRect,0.250000X-0.600000X-0.725000X0.600000X-0.725000X0.600000X0.725000X-0.600000X0.725000X0*%
%ADD21O,1.700000X1.950000*%
G04 APERTURE END LIST*
D10*
%TO.C,J18*%
X63000000Y-19000000D03*
D11*
X64600000Y-17000000D03*
D12*
X67100000Y-17000000D03*
%TD*%
D13*
%TO.C,J11*%
X53000000Y-67380000D03*
D14*
X53000000Y-69920000D03*
X53000000Y-72460000D03*
X53000000Y-75000000D03*
X53000000Y-77540000D03*
%TD*%
D13*
%TO.C,J14*%
X42000000Y-68920000D03*
D14*
X42000000Y-71460000D03*
X42000000Y-74000000D03*
X42000000Y-76540000D03*
%TD*%
D15*
%TO.C,REF\u002A\u002A*%
X17000000Y-17000000D03*
%TD*%
%TO.C,REF\u002A\u002A*%
X77000000Y-77000000D03*
%TD*%
D13*
%TO.C,J3*%
X16460000Y-52000000D03*
D14*
X19000000Y-52000000D03*
X21540000Y-52000000D03*
X24080000Y-52000000D03*
%TD*%
D13*
%TO.C,J7*%
X16380000Y-48000000D03*
D14*
X18920000Y-48000000D03*
X21460000Y-48000000D03*
X24000000Y-48000000D03*
%TD*%
D16*
%TO.C,U1*%
X29500000Y-24220000D03*
D17*
X29500000Y-26760000D03*
X29500000Y-29300000D03*
X29500000Y-31840000D03*
X29500000Y-34380000D03*
X29500000Y-36920000D03*
X29500000Y-39460000D03*
X29500000Y-42000000D03*
X52360000Y-42000000D03*
X52360000Y-39460000D03*
X52360000Y-36920000D03*
X52360000Y-34380000D03*
X52360000Y-31840000D03*
X52360000Y-29300000D03*
X52360000Y-26760000D03*
X52360000Y-24220000D03*
%TD*%
D18*
%TO.C,R4*%
X71000000Y-26525000D03*
D19*
X71000000Y-31605000D03*
%TD*%
D18*
%TO.C,R3*%
X71000000Y-44500000D03*
D19*
X71000000Y-49580000D03*
%TD*%
D13*
%TO.C,J4*%
X33035000Y-60885000D03*
D14*
X33035000Y-63425000D03*
X33035000Y-65965000D03*
X33035000Y-68505000D03*
X33035000Y-71045000D03*
%TD*%
D18*
%TO.C,R1*%
X46500000Y-53500000D03*
D19*
X46500000Y-61120000D03*
%TD*%
D13*
%TO.C,J8*%
X24500000Y-24125000D03*
D14*
X24500000Y-26665000D03*
X24500000Y-29205000D03*
X24500000Y-31745000D03*
X24500000Y-34285000D03*
X24500000Y-36825000D03*
X24500000Y-39365000D03*
X24500000Y-41905000D03*
%TD*%
%TO.C,J16*%
X67000000Y-73080000D03*
X67000000Y-70540000D03*
X67000000Y-68000000D03*
D13*
X67000000Y-65460000D03*
%TD*%
%TO.C,J9*%
X57500000Y-24340000D03*
D14*
X57500000Y-26880000D03*
X57500000Y-29420000D03*
X57500000Y-31960000D03*
X57500000Y-34500000D03*
X57500000Y-37040000D03*
X57500000Y-39580000D03*
X57500000Y-42120000D03*
%TD*%
%TO.C,J15*%
X61000000Y-73000000D03*
X61000000Y-70460000D03*
X61000000Y-67920000D03*
D13*
X61000000Y-65380000D03*
%TD*%
D14*
%TO.C,J10*%
X24080000Y-56000000D03*
X21540000Y-56000000D03*
X19000000Y-56000000D03*
D13*
X16460000Y-56000000D03*
%TD*%
D18*
%TO.C,R2*%
X51000000Y-61120000D03*
D19*
X51000000Y-53500000D03*
%TD*%
D15*
%TO.C,REF\u002A\u002A*%
X77000000Y-17000000D03*
%TD*%
D14*
%TO.C,J17*%
X73000000Y-73080000D03*
X73000000Y-70540000D03*
X73000000Y-68000000D03*
D13*
X73000000Y-65460000D03*
%TD*%
%TO.C,J1*%
X17035000Y-60920000D03*
D14*
X17035000Y-63460000D03*
X17035000Y-66000000D03*
X17035000Y-68540000D03*
X17035000Y-71080000D03*
%TD*%
D13*
%TO.C,J5*%
X21035000Y-60840000D03*
D14*
X21035000Y-63380000D03*
X21035000Y-65920000D03*
X21035000Y-68460000D03*
X21035000Y-71000000D03*
%TD*%
D13*
%TO.C,J6*%
X25035000Y-60920000D03*
D14*
X25035000Y-63460000D03*
X25035000Y-66000000D03*
X25035000Y-68540000D03*
X25035000Y-71080000D03*
%TD*%
D15*
%TO.C,REF\u002A\u002A*%
X17000000Y-77000000D03*
%TD*%
D20*
%TO.C,J13*%
X73000000Y-36000000D03*
D21*
X75500000Y-36000000D03*
X78000000Y-36000000D03*
%TD*%
D20*
%TO.C,J12*%
X73000000Y-54000000D03*
D21*
X75500000Y-54000000D03*
X78000000Y-54000000D03*
%TD*%
D13*
%TO.C,J2*%
X29035000Y-60920000D03*
D14*
X29035000Y-63460000D03*
X29035000Y-66000000D03*
X29035000Y-68540000D03*
X29035000Y-71080000D03*
%TD*%
M02*
