%TF.GenerationSoftware,KiCad,Pcbnew,8.0.5*%
%TF.CreationDate,2024-10-07T23:19:43+02:00*%
%TF.ProjectId,D1 Breadboard,44312042-7265-4616-9462-6f6172642e6b,rev?*%
%TF.SameCoordinates,Original*%
%TF.FileFunction,Copper,L1,Top*%
%TF.FilePolarity,Positive*%
%FSLAX46Y46*%
G04 Gerber Fmt 4.6, Leading zero omitted, Abs format (unit mm)*
G04 Created by KiCad (PCBNEW 8.0.5) date 2024-10-07 23:19:43*
%MOMM*%
%LPD*%
G01*
G04 APERTURE LIST*
G04 Aperture macros list*
%AMRoundRect*
0 Rectangle with rounded corners*
0 $1 Rounding radius*
0 $2 $3 $4 $5 $6 $7 $8 $9 X,Y pos of 4 corners*
0 Add a 4 corners polygon primitive as box body*
4,1,4,$2,$3,$4,$5,$6,$7,$8,$9,$2,$3,0*
0 Add four circle primitives for the rounded corners*
1,1,$1+$1,$2,$3*
1,1,$1+$1,$4,$5*
1,1,$1+$1,$6,$7*
1,1,$1+$1,$8,$9*
0 Add four rect primitives between the rounded corners*
20,1,$1+$1,$2,$3,$4,$5,0*
20,1,$1+$1,$4,$5,$6,$7,0*
20,1,$1+$1,$6,$7,$8,$9,0*
20,1,$1+$1,$8,$9,$2,$3,0*%
%AMFreePoly0*
4,1,19,0.500000,-0.750000,0.000000,-0.750000,0.000000,-0.744911,-0.071157,-0.744911,-0.207708,-0.704816,-0.327430,-0.627875,-0.420627,-0.520320,-0.479746,-0.390866,-0.500000,-0.250000,-0.500000,0.250000,-0.479746,0.390866,-0.420627,0.520320,-0.327430,0.627875,-0.207708,0.704816,-0.071157,0.744911,0.000000,0.744911,0.000000,0.750000,0.500000,0.750000,0.500000,-0.750000,0.500000,-0.750000,
$1*%
%AMFreePoly1*
4,1,19,0.000000,0.744911,0.071157,0.744911,0.207708,0.704816,0.327430,0.627875,0.420627,0.520320,0.479746,0.390866,0.500000,0.250000,0.500000,-0.250000,0.479746,-0.390866,0.420627,-0.520320,0.327430,-0.627875,0.207708,-0.704816,0.071157,-0.744911,0.000000,-0.744911,0.000000,-0.750000,-0.500000,-0.750000,-0.500000,0.750000,0.000000,0.750000,0.000000,0.744911,0.000000,0.744911,
$1*%
G04 Aperture macros list end*
%TA.AperFunction,ComponentPad*%
%ADD10RoundRect,0.250000X-0.600000X-0.750000X0.600000X-0.750000X0.600000X0.750000X-0.600000X0.750000X0*%
%TD*%
%TA.AperFunction,ComponentPad*%
%ADD11O,1.700000X2.000000*%
%TD*%
%TA.AperFunction,ComponentPad*%
%ADD12R,1.700000X1.700000*%
%TD*%
%TA.AperFunction,ComponentPad*%
%ADD13O,1.700000X1.700000*%
%TD*%
%TA.AperFunction,SMDPad,CuDef*%
%ADD14FreePoly0,270.000000*%
%TD*%
%TA.AperFunction,SMDPad,CuDef*%
%ADD15FreePoly1,270.000000*%
%TD*%
%TA.AperFunction,ComponentPad*%
%ADD16R,2.000000X2.000000*%
%TD*%
%TA.AperFunction,ComponentPad*%
%ADD17O,2.000000X1.600000*%
%TD*%
%TA.AperFunction,ComponentPad*%
%ADD18C,1.400000*%
%TD*%
%TA.AperFunction,ComponentPad*%
%ADD19O,1.400000X1.400000*%
%TD*%
%TA.AperFunction,ComponentPad*%
%ADD20RoundRect,0.250000X-0.600000X-0.725000X0.600000X-0.725000X0.600000X0.725000X-0.600000X0.725000X0*%
%TD*%
%TA.AperFunction,ComponentPad*%
%ADD21O,1.700000X1.950000*%
%TD*%
%TA.AperFunction,ViaPad*%
%ADD22C,0.600000*%
%TD*%
%TA.AperFunction,Conductor*%
%ADD23C,0.200000*%
%TD*%
G04 APERTURE END LIST*
D10*
%TO.P,J18,1,Pin_1*%
%TO.N,+5V*%
X64600000Y-17000000D03*
D11*
%TO.P,J18,2,Pin_2*%
%TO.N,GND*%
X67100000Y-17000000D03*
%TD*%
D12*
%TO.P,J11,1,Pin_1*%
%TO.N,+5V*%
X53000000Y-67380000D03*
D13*
%TO.P,J11,2,Pin_2*%
%TO.N,+3V3*%
X53000000Y-69920000D03*
%TO.P,J11,3,Pin_3*%
%TO.N,Net-(J11-Pin_3)*%
X53000000Y-72460000D03*
%TO.P,J11,4,Pin_4*%
%TO.N,Net-(J11-Pin_4)*%
X53000000Y-75000000D03*
%TO.P,J11,5,Pin_5*%
%TO.N,GND*%
X53000000Y-77540000D03*
%TD*%
D14*
%TO.P,JP2,1,A*%
%TO.N,+5V*%
X75500000Y-28225000D03*
D15*
%TO.P,JP2,2,B*%
%TO.N,Net-(J13-Pin_1)*%
X75500000Y-29525000D03*
%TD*%
D12*
%TO.P,J14,1,Pin_1*%
%TO.N,+5V*%
X42000000Y-68920000D03*
D13*
%TO.P,J14,2,Pin_2*%
%TO.N,Net-(J14-Pin_2)*%
X42000000Y-71460000D03*
%TO.P,J14,3,Pin_3*%
%TO.N,unconnected-(J14-Pin_3-Pad3)*%
X42000000Y-74000000D03*
%TO.P,J14,4,Pin_4*%
%TO.N,GND*%
X42000000Y-76540000D03*
%TD*%
D12*
%TO.P,J3,1,Pin_1*%
%TO.N,GND*%
X16460000Y-52000000D03*
D13*
%TO.P,J3,2,Pin_2*%
X19000000Y-52000000D03*
%TO.P,J3,3,Pin_3*%
X21540000Y-52000000D03*
%TO.P,J3,4,Pin_4*%
X24080000Y-52000000D03*
%TD*%
D14*
%TO.P,JP1,1,A*%
%TO.N,+5V*%
X75500000Y-46200000D03*
D15*
%TO.P,JP1,2,B*%
%TO.N,Net-(J12-Pin_1)*%
X75500000Y-47500000D03*
%TD*%
D12*
%TO.P,J7,1,Pin_1*%
%TO.N,+3V3*%
X16380000Y-48000000D03*
D13*
%TO.P,J7,2,Pin_2*%
X18920000Y-48000000D03*
%TO.P,J7,3,Pin_3*%
X21460000Y-48000000D03*
%TO.P,J7,4,Pin_4*%
X24000000Y-48000000D03*
%TD*%
D16*
%TO.P,U1,1,~{RST}*%
%TO.N,Net-(J8-Pin_1)*%
X29500000Y-24220000D03*
D17*
%TO.P,U1,2,A0*%
%TO.N,Net-(J8-Pin_2)*%
X29500000Y-26760000D03*
%TO.P,U1,3,D0*%
%TO.N,Net-(J8-Pin_3)*%
X29500000Y-29300000D03*
%TO.P,U1,4,SCK/D5*%
%TO.N,Net-(J14-Pin_2)*%
X29500000Y-31840000D03*
%TO.P,U1,5,MISO/D6*%
%TO.N,Net-(J15-Pin_3)*%
X29500000Y-34380000D03*
%TO.P,U1,6,MOSI/D7*%
%TO.N,Net-(J8-Pin_6)*%
X29500000Y-36920000D03*
%TO.P,U1,7,CS/D8*%
%TO.N,Net-(J8-Pin_7)*%
X29500000Y-39460000D03*
%TO.P,U1,8,3V3*%
%TO.N,+3V3*%
X29500000Y-42000000D03*
%TO.P,U1,9,5V*%
%TO.N,+5V*%
X52360000Y-42000000D03*
%TO.P,U1,10,GND*%
%TO.N,GND*%
X52360000Y-39460000D03*
%TO.P,U1,11,D4*%
%TO.N,Net-(J13-Pin_2)*%
X52360000Y-36920000D03*
%TO.P,U1,12,D3*%
%TO.N,Net-(J12-Pin_2)*%
X52360000Y-34380000D03*
%TO.P,U1,13,SDA/D2*%
%TO.N,Net-(J11-Pin_4)*%
X52360000Y-31840000D03*
%TO.P,U1,14,SCL/D1*%
%TO.N,Net-(J11-Pin_3)*%
X52360000Y-29300000D03*
%TO.P,U1,15,RX*%
%TO.N,Net-(J9-Pin_2)*%
X52360000Y-26760000D03*
%TO.P,U1,16,TX*%
%TO.N,Net-(J9-Pin_1)*%
X52360000Y-24220000D03*
%TD*%
D18*
%TO.P,R4,1*%
%TO.N,+5V*%
X71000000Y-26525000D03*
D19*
%TO.P,R4,2*%
%TO.N,Net-(J13-Pin_1)*%
X71000000Y-31605000D03*
%TD*%
D18*
%TO.P,R3,1*%
%TO.N,+5V*%
X71000000Y-44500000D03*
D19*
%TO.P,R3,2*%
%TO.N,Net-(J12-Pin_1)*%
X71000000Y-49580000D03*
%TD*%
D12*
%TO.P,J4,1,Pin_1*%
%TO.N,GND*%
X33035000Y-60885000D03*
D13*
%TO.P,J4,2,Pin_2*%
%TO.N,Net-(J1-Pin_2)*%
X33035000Y-63425000D03*
%TO.P,J4,3,Pin_3*%
%TO.N,Net-(J1-Pin_3)*%
X33035000Y-65965000D03*
%TO.P,J4,4,Pin_4*%
%TO.N,Net-(J1-Pin_4)*%
X33035000Y-68505000D03*
%TO.P,J4,5,Pin_5*%
%TO.N,Net-(J1-Pin_5)*%
X33035000Y-71045000D03*
%TD*%
D18*
%TO.P,R1,1*%
%TO.N,+5V*%
X46500000Y-53500000D03*
D19*
%TO.P,R1,2*%
%TO.N,Net-(J15-Pin_3)*%
X46500000Y-61120000D03*
%TD*%
D12*
%TO.P,J8,1,Pin_1*%
%TO.N,Net-(J8-Pin_1)*%
X24500000Y-24125000D03*
D13*
%TO.P,J8,2,Pin_2*%
%TO.N,Net-(J8-Pin_2)*%
X24500000Y-26665000D03*
%TO.P,J8,3,Pin_3*%
%TO.N,Net-(J8-Pin_3)*%
X24500000Y-29205000D03*
%TO.P,J8,4,Pin_4*%
%TO.N,Net-(J14-Pin_2)*%
X24500000Y-31745000D03*
%TO.P,J8,5,Pin_5*%
%TO.N,Net-(J15-Pin_3)*%
X24500000Y-34285000D03*
%TO.P,J8,6,Pin_6*%
%TO.N,Net-(J8-Pin_6)*%
X24500000Y-36825000D03*
%TO.P,J8,7,Pin_7*%
%TO.N,Net-(J8-Pin_7)*%
X24500000Y-39365000D03*
%TO.P,J8,8,Pin_8*%
%TO.N,+3V3*%
X24500000Y-41905000D03*
%TD*%
%TO.P,J16,4,Pin_4*%
%TO.N,GND*%
X67000000Y-73080000D03*
%TO.P,J16,3,Pin_3*%
%TO.N,Net-(J15-Pin_3)*%
X67000000Y-70540000D03*
%TO.P,J16,2,Pin_2*%
%TO.N,+3V3*%
X67000000Y-68000000D03*
D12*
%TO.P,J16,1,Pin_1*%
%TO.N,+5V*%
X67000000Y-65460000D03*
%TD*%
%TO.P,J9,1,Pin_1*%
%TO.N,Net-(J9-Pin_1)*%
X57500000Y-24340000D03*
D13*
%TO.P,J9,2,Pin_2*%
%TO.N,Net-(J9-Pin_2)*%
X57500000Y-26880000D03*
%TO.P,J9,3,Pin_3*%
%TO.N,Net-(J11-Pin_3)*%
X57500000Y-29420000D03*
%TO.P,J9,4,Pin_4*%
%TO.N,Net-(J11-Pin_4)*%
X57500000Y-31960000D03*
%TO.P,J9,5,Pin_5*%
%TO.N,Net-(J12-Pin_2)*%
X57500000Y-34500000D03*
%TO.P,J9,6,Pin_6*%
%TO.N,Net-(J13-Pin_2)*%
X57500000Y-37040000D03*
%TO.P,J9,7,Pin_7*%
%TO.N,GND*%
X57500000Y-39580000D03*
%TO.P,J9,8,Pin_8*%
%TO.N,+5V*%
X57500000Y-42120000D03*
%TD*%
%TO.P,J15,4,Pin_4*%
%TO.N,GND*%
X61000000Y-73000000D03*
%TO.P,J15,3,Pin_3*%
%TO.N,Net-(J15-Pin_3)*%
X61000000Y-70460000D03*
%TO.P,J15,2,Pin_2*%
%TO.N,+3V3*%
X61000000Y-67920000D03*
D12*
%TO.P,J15,1,Pin_1*%
%TO.N,+5V*%
X61000000Y-65380000D03*
%TD*%
D13*
%TO.P,J10,4,Pin_4*%
%TO.N,+5V*%
X24080000Y-56000000D03*
%TO.P,J10,3,Pin_3*%
X21540000Y-56000000D03*
%TO.P,J10,2,Pin_2*%
X19000000Y-56000000D03*
D12*
%TO.P,J10,1,Pin_1*%
X16460000Y-56000000D03*
%TD*%
D18*
%TO.P,R2,1*%
%TO.N,Net-(J15-Pin_3)*%
X51000000Y-61120000D03*
D19*
%TO.P,R2,2*%
%TO.N,+3V3*%
X51000000Y-53500000D03*
%TD*%
D13*
%TO.P,J17,4,Pin_4*%
%TO.N,GND*%
X73000000Y-73080000D03*
%TO.P,J17,3,Pin_3*%
%TO.N,Net-(J15-Pin_3)*%
X73000000Y-70540000D03*
%TO.P,J17,2,Pin_2*%
%TO.N,+3V3*%
X73000000Y-68000000D03*
D12*
%TO.P,J17,1,Pin_1*%
%TO.N,+5V*%
X73000000Y-65460000D03*
%TD*%
%TO.P,J1,1,Pin_1*%
%TO.N,GND*%
X17035000Y-60920000D03*
D13*
%TO.P,J1,2,Pin_2*%
%TO.N,Net-(J1-Pin_2)*%
X17035000Y-63460000D03*
%TO.P,J1,3,Pin_3*%
%TO.N,Net-(J1-Pin_3)*%
X17035000Y-66000000D03*
%TO.P,J1,4,Pin_4*%
%TO.N,Net-(J1-Pin_4)*%
X17035000Y-68540000D03*
%TO.P,J1,5,Pin_5*%
%TO.N,Net-(J1-Pin_5)*%
X17035000Y-71080000D03*
%TD*%
D12*
%TO.P,J5,1,Pin_1*%
%TO.N,GND*%
X21035000Y-60840000D03*
D13*
%TO.P,J5,2,Pin_2*%
%TO.N,Net-(J1-Pin_2)*%
X21035000Y-63380000D03*
%TO.P,J5,3,Pin_3*%
%TO.N,Net-(J1-Pin_3)*%
X21035000Y-65920000D03*
%TO.P,J5,4,Pin_4*%
%TO.N,Net-(J1-Pin_4)*%
X21035000Y-68460000D03*
%TO.P,J5,5,Pin_5*%
%TO.N,Net-(J1-Pin_5)*%
X21035000Y-71000000D03*
%TD*%
D12*
%TO.P,J6,1,Pin_1*%
%TO.N,GND*%
X25035000Y-60920000D03*
D13*
%TO.P,J6,2,Pin_2*%
%TO.N,Net-(J1-Pin_2)*%
X25035000Y-63460000D03*
%TO.P,J6,3,Pin_3*%
%TO.N,Net-(J1-Pin_3)*%
X25035000Y-66000000D03*
%TO.P,J6,4,Pin_4*%
%TO.N,Net-(J1-Pin_4)*%
X25035000Y-68540000D03*
%TO.P,J6,5,Pin_5*%
%TO.N,Net-(J1-Pin_5)*%
X25035000Y-71080000D03*
%TD*%
D20*
%TO.P,J13,1,Pin_1*%
%TO.N,Net-(J13-Pin_1)*%
X73000000Y-36000000D03*
D21*
%TO.P,J13,2,Pin_2*%
%TO.N,Net-(J13-Pin_2)*%
X75500000Y-36000000D03*
%TO.P,J13,3,Pin_3*%
%TO.N,GND*%
X78000000Y-36000000D03*
%TD*%
D20*
%TO.P,J12,1,Pin_1*%
%TO.N,Net-(J12-Pin_1)*%
X73000000Y-54000000D03*
D21*
%TO.P,J12,2,Pin_2*%
%TO.N,Net-(J12-Pin_2)*%
X75500000Y-54000000D03*
%TO.P,J12,3,Pin_3*%
%TO.N,GND*%
X78000000Y-54000000D03*
%TD*%
D12*
%TO.P,J2,1,Pin_1*%
%TO.N,GND*%
X29035000Y-60920000D03*
D13*
%TO.P,J2,2,Pin_2*%
%TO.N,Net-(J1-Pin_2)*%
X29035000Y-63460000D03*
%TO.P,J2,3,Pin_3*%
%TO.N,Net-(J1-Pin_3)*%
X29035000Y-66000000D03*
%TO.P,J2,4,Pin_4*%
%TO.N,Net-(J1-Pin_4)*%
X29035000Y-68540000D03*
%TO.P,J2,5,Pin_5*%
%TO.N,Net-(J1-Pin_5)*%
X29035000Y-71080000D03*
%TD*%
D22*
%TO.N,+3V3*%
X46000000Y-70000000D03*
X46000000Y-66000000D03*
%TO.N,Net-(J11-Pin_4)*%
X65500000Y-37100000D03*
X48500000Y-65000000D03*
X62000000Y-36000000D03*
X65500000Y-45500000D03*
%TO.N,Net-(J11-Pin_3)*%
X66500000Y-36500000D03*
X66500000Y-45000000D03*
X50000000Y-65500000D03*
X63500000Y-36000000D03*
%TO.N,Net-(J14-Pin_2)*%
X39000000Y-56000000D03*
X38000000Y-45000000D03*
%TO.N,+5V*%
X32000000Y-55000000D03*
X42000000Y-58000000D03*
%TO.N,Net-(J12-Pin_2)*%
X68000000Y-36000000D03*
X68000000Y-45000000D03*
%TO.N,+5V*%
X45000000Y-42000000D03*
%TD*%
D23*
%TO.N,Net-(J11-Pin_4)*%
X65500000Y-49000000D02*
X65500000Y-45500000D01*
X48500000Y-65000000D02*
X49500000Y-65000000D01*
X49500000Y-65000000D02*
X65500000Y-49000000D01*
%TO.N,+3V3*%
X47000000Y-70000000D02*
X47080000Y-69920000D01*
X51000000Y-53500000D02*
X47900000Y-56600000D01*
X47900000Y-56600000D02*
X47900000Y-64100000D01*
X47080000Y-69920000D02*
X53000000Y-69920000D01*
X47900000Y-64100000D02*
X46000000Y-66000000D01*
X46000000Y-70000000D02*
X47000000Y-70000000D01*
%TO.N,Net-(J11-Pin_4)*%
X63751471Y-37100000D02*
X62651471Y-36000000D01*
X65500000Y-37100000D02*
X63751471Y-37100000D01*
X62651471Y-36000000D02*
X62000000Y-36000000D01*
%TO.N,Net-(J11-Pin_3)*%
X66500000Y-49000000D02*
X66500000Y-45000000D01*
X66500000Y-36500000D02*
X64000000Y-36500000D01*
X50000000Y-65500000D02*
X66500000Y-49000000D01*
X64000000Y-36500000D02*
X63500000Y-36000000D01*
%TO.N,Net-(J15-Pin_3)*%
X67000000Y-70540000D02*
X66540000Y-70540000D01*
X66540000Y-70540000D02*
X66460000Y-70460000D01*
X66460000Y-70460000D02*
X61000000Y-70460000D01*
X73000000Y-70540000D02*
X67000000Y-70540000D01*
%TO.N,+3V3*%
X67000000Y-68000000D02*
X73000000Y-68000000D01*
X61000000Y-67920000D02*
X61420000Y-67920000D01*
X61420000Y-67920000D02*
X61500000Y-68000000D01*
X61500000Y-68000000D02*
X67000000Y-68000000D01*
X61000000Y-67920000D02*
X55000000Y-67920000D01*
X55000000Y-67920000D02*
X53000000Y-69920000D01*
%TO.N,GND*%
X67000000Y-73080000D02*
X73000000Y-73080000D01*
X61000000Y-73000000D02*
X62000000Y-73000000D01*
X62000000Y-73000000D02*
X62080000Y-73080000D01*
X62080000Y-73080000D02*
X67000000Y-73080000D01*
X53000000Y-77540000D02*
X56460000Y-77540000D01*
X56460000Y-77540000D02*
X61000000Y-73000000D01*
%TO.N,+5V*%
X67000000Y-65460000D02*
X73000000Y-65460000D01*
X61000000Y-65380000D02*
X61120000Y-65380000D01*
X61200000Y-65460000D02*
X67000000Y-65460000D01*
X61120000Y-65380000D02*
X61200000Y-65460000D01*
X53000000Y-67380000D02*
X53380000Y-67380000D01*
X53380000Y-67380000D02*
X55380000Y-65380000D01*
X55380000Y-65380000D02*
X61000000Y-65380000D01*
X42000000Y-68920000D02*
X51460000Y-68920000D01*
X51460000Y-68920000D02*
X53000000Y-67380000D01*
%TO.N,GND*%
X42000000Y-76540000D02*
X52000000Y-76540000D01*
X52000000Y-76540000D02*
X53000000Y-77540000D01*
%TO.N,Net-(J14-Pin_2)*%
X38000000Y-34000000D02*
X35840000Y-31840000D01*
X42000000Y-71460000D02*
X39000000Y-68460000D01*
X38000000Y-45000000D02*
X38000000Y-34000000D01*
X35840000Y-31840000D02*
X29500000Y-31840000D01*
X39000000Y-68460000D02*
X39000000Y-56000000D01*
%TO.N,+5V*%
X42000000Y-68920000D02*
X42000000Y-58000000D01*
X42000000Y-58000000D02*
X46500000Y-53500000D01*
%TO.N,GND*%
X42000000Y-76540000D02*
X37000000Y-71540000D01*
X37000000Y-71540000D02*
X37000000Y-64850000D01*
X37000000Y-64850000D02*
X33035000Y-60885000D01*
%TO.N,Net-(J12-Pin_2)*%
X68000000Y-36000000D02*
X66500000Y-34500000D01*
X73500000Y-56000000D02*
X69000000Y-56000000D01*
X75500000Y-54000000D02*
X73500000Y-56000000D01*
X69000000Y-56000000D02*
X68000000Y-55000000D01*
X68000000Y-55000000D02*
X68000000Y-45000000D01*
X66500000Y-34500000D02*
X57500000Y-34500000D01*
%TO.N,Net-(J13-Pin_2)*%
X57500000Y-37040000D02*
X58350000Y-37890000D01*
X58350000Y-37890000D02*
X73610000Y-37890000D01*
X73610000Y-37890000D02*
X75500000Y-36000000D01*
%TO.N,+5V*%
X24080000Y-56000000D02*
X16460000Y-56000000D01*
X45000000Y-42000000D02*
X31000000Y-56000000D01*
X31000000Y-56000000D02*
X24080000Y-56000000D01*
%TO.N,GND*%
X16460000Y-52000000D02*
X24080000Y-52000000D01*
%TO.N,+3V3*%
X24000000Y-48000000D02*
X16380000Y-48000000D01*
X24500000Y-41905000D02*
X24500000Y-47500000D01*
X24500000Y-47500000D02*
X24000000Y-48000000D01*
%TO.N,GND*%
X12600000Y-56600000D02*
X12600000Y-52000000D01*
X14885000Y-58885000D02*
X12600000Y-56600000D01*
X12600000Y-52000000D02*
X16460000Y-52000000D01*
X15000000Y-58885000D02*
X14885000Y-58885000D01*
X17035000Y-60920000D02*
X15000000Y-58885000D01*
X33035000Y-60885000D02*
X17070000Y-60885000D01*
X17070000Y-60885000D02*
X17035000Y-60920000D01*
X52360000Y-39460000D02*
X33035000Y-58785000D01*
X33035000Y-58785000D02*
X33035000Y-60885000D01*
X57500000Y-39580000D02*
X74580000Y-39580000D01*
X74580000Y-39580000D02*
X79000000Y-44000000D01*
X79000000Y-44000000D02*
X79000000Y-50000000D01*
X79000000Y-50000000D02*
X78000000Y-51000000D01*
X78000000Y-51000000D02*
X78000000Y-54000000D01*
X57500000Y-39580000D02*
X74420000Y-39580000D01*
X74420000Y-39580000D02*
X78000000Y-36000000D01*
%TO.N,Net-(J13-Pin_1)*%
X71000000Y-31605000D02*
X71000000Y-34000000D01*
X71000000Y-34000000D02*
X73000000Y-36000000D01*
X75500000Y-29525000D02*
X73080000Y-29525000D01*
X73080000Y-29525000D02*
X71000000Y-31605000D01*
%TO.N,+5V*%
X71000000Y-26525000D02*
X71000000Y-23400000D01*
X71000000Y-23400000D02*
X64600000Y-17000000D01*
X71000000Y-26525000D02*
X73800000Y-26525000D01*
X73800000Y-26525000D02*
X75500000Y-28225000D01*
%TO.N,Net-(J12-Pin_1)*%
X71000000Y-49580000D02*
X73000000Y-51580000D01*
X73000000Y-51580000D02*
X73000000Y-54000000D01*
X75500000Y-47500000D02*
X73080000Y-47500000D01*
X73080000Y-47500000D02*
X71000000Y-49580000D01*
%TO.N,+5V*%
X71000000Y-44500000D02*
X71500000Y-44500000D01*
X71500000Y-44500000D02*
X73200000Y-46200000D01*
X73200000Y-46200000D02*
X75500000Y-46200000D01*
X57500000Y-42120000D02*
X68620000Y-42120000D01*
X68620000Y-42120000D02*
X71000000Y-44500000D01*
%TO.N,GND*%
X57380000Y-39460000D02*
X57500000Y-39580000D01*
X17035000Y-60920000D02*
X20955000Y-60920000D01*
X21035000Y-60840000D02*
X24955000Y-60840000D01*
X25035000Y-60920000D02*
X29035000Y-60920000D01*
X52360000Y-39460000D02*
X57380000Y-39460000D01*
X33000000Y-60920000D02*
X33035000Y-60885000D01*
X29035000Y-60920000D02*
X33000000Y-60920000D01*
X24955000Y-60840000D02*
X25035000Y-60920000D01*
X20955000Y-60920000D02*
X21035000Y-60840000D01*
%TO.N,Net-(J8-Pin_1)*%
X24500000Y-24125000D02*
X29405000Y-24125000D01*
X29405000Y-24125000D02*
X29500000Y-24220000D01*
%TO.N,Net-(J8-Pin_2)*%
X24500000Y-26665000D02*
X29405000Y-26665000D01*
X29405000Y-26665000D02*
X29500000Y-26760000D01*
%TO.N,Net-(J8-Pin_7)*%
X29405000Y-39365000D02*
X29500000Y-39460000D01*
X24500000Y-39365000D02*
X29405000Y-39365000D01*
%TO.N,Net-(J8-Pin_6)*%
X24500000Y-36825000D02*
X29405000Y-36825000D01*
X29405000Y-36825000D02*
X29500000Y-36920000D01*
%TO.N,Net-(J8-Pin_3)*%
X29405000Y-29205000D02*
X29500000Y-29300000D01*
X24500000Y-29205000D02*
X29405000Y-29205000D01*
%TO.N,Net-(J9-Pin_2)*%
X57380000Y-26760000D02*
X57500000Y-26880000D01*
X52360000Y-26760000D02*
X57380000Y-26760000D01*
%TO.N,Net-(J9-Pin_1)*%
X52360000Y-24220000D02*
X57380000Y-24220000D01*
X57380000Y-24220000D02*
X57500000Y-24340000D01*
%TO.N,+5V*%
X57380000Y-42000000D02*
X57500000Y-42120000D01*
X52360000Y-42000000D02*
X57380000Y-42000000D01*
%TO.N,+3V3*%
X29405000Y-41905000D02*
X29500000Y-42000000D01*
X24500000Y-41905000D02*
X29405000Y-41905000D01*
%TO.N,Net-(J1-Pin_2)*%
X33000000Y-63460000D02*
X33035000Y-63425000D01*
X17035000Y-63460000D02*
X33000000Y-63460000D01*
%TO.N,Net-(J1-Pin_5)*%
X17035000Y-71080000D02*
X33000000Y-71080000D01*
X33000000Y-71080000D02*
X33035000Y-71045000D01*
%TO.N,Net-(J1-Pin_3)*%
X17035000Y-66000000D02*
X33000000Y-66000000D01*
X33000000Y-66000000D02*
X33035000Y-65965000D01*
%TO.N,Net-(J1-Pin_4)*%
X17035000Y-68540000D02*
X17535000Y-68540000D01*
X17570000Y-68505000D02*
X33035000Y-68505000D01*
X17535000Y-68540000D02*
X17570000Y-68505000D01*
%TO.N,Net-(J15-Pin_3)*%
X29405000Y-34285000D02*
X29500000Y-34380000D01*
X24500000Y-34285000D02*
X29405000Y-34285000D01*
%TO.N,Net-(J14-Pin_2)*%
X29405000Y-31745000D02*
X29500000Y-31840000D01*
X24500000Y-31745000D02*
X29405000Y-31745000D01*
%TO.N,Net-(J11-Pin_4)*%
X52360000Y-31840000D02*
X57380000Y-31840000D01*
X57380000Y-31840000D02*
X57500000Y-31960000D01*
%TO.N,Net-(J12-Pin_2)*%
X57380000Y-34380000D02*
X57500000Y-34500000D01*
X52360000Y-34380000D02*
X57380000Y-34380000D01*
%TO.N,Net-(J13-Pin_2)*%
X52360000Y-36920000D02*
X57380000Y-36920000D01*
X57380000Y-36920000D02*
X57500000Y-37040000D01*
%TO.N,Net-(J11-Pin_3)*%
X57380000Y-29300000D02*
X57500000Y-29420000D01*
X52360000Y-29300000D02*
X57380000Y-29300000D01*
%TD*%
M02*
